<?xml version="1.0" encoding="utf-8"?>
<!-- Generator: Adobe Illustrator 23.0.5, SVG Export Plug-In . SVG Version: 6.00 Build 0)  -->
<svg version="1.1" id="Layer_1" xmlns="http://www.w3.org/2000/svg" xmlns:xlink="http://www.w3.org/1999/xlink" x="0px" y="0px"
	 viewBox="0 0 360 360" style="enable-background:new 0 0 360 360;" xml:space="preserve">
<style type="text/css">
	.st0{fill:#FFFFFF;}
</style>
<g>
	<path class="st0" d="M357.2,180.3c0,17-0.1,34,0.1,51c0.1,7.3-2.7,12.6-8.8,16.7c-52.7,35-105.3,70.1-157.9,105.3
		c-7.1,4.8-13.7,4.8-20.8,0.1c-52.6-35.2-105.2-70.3-157.9-105.3c-6.2-4.1-9-9.3-8.9-16.7c0.1-34.2,0.1-68.3,0-102.5
		c0-7.5,2.7-12.9,9-17.1c52.6-34.9,105.1-69.9,157.5-105c7.3-4.9,13.9-4.9,21.2-0.1C243.1,42,295.8,77,348.5,112.1
		c6,4,8.8,9.2,8.7,16.3C357.1,145.6,357.2,163,357.2,180.3z M45.5,126c17.5,11.7,34.3,23,51.3,34.2c1.1,0.7,3.8,0.2,5.1-0.7
		c19.9-13.1,39.6-26.4,59.5-39.6c2.6-1.7,3.4-3.5,3.4-6.5c-0.1-20.7-0.1-41.3-0.1-62c0-1.2-0.2-2.5-0.3-4.5
		C124.5,73.4,85.4,99.5,45.5,126z M314.5,126c-39.8-26.5-79-52.7-118.4-78.9c-0.5,0.9-0.7,1.2-0.7,1.5c0,22.2-0.1,44.3,0,66.5
		c0,1.4,1.4,3.4,2.6,4.2c20.1,13.6,40.3,27.1,60.7,40.5c1.2,0.8,3.8,0.7,5.1-0.1c8.2-5.2,16.1-10.6,24.1-16
		C296.6,138,305.3,132.1,314.5,126z M164.2,313c0.3-1.3,0.5-1.8,0.5-2.3c0-21.8,0.1-43.7-0.1-65.5c0-1.7-1.6-3.9-3.1-4.9
		c-19.7-13.4-39.6-26.5-59.3-39.9c-2.7-1.9-4.5-1.5-7,0.2C83.6,208.5,72,216.2,60.3,224c-4.8,3.2-9.6,6.4-14.8,9.9
		C85.3,260.4,124.4,286.5,164.2,313z M195.3,313.4c40.2-26.8,79.5-53,119.2-79.4c-18.1-12.1-35.7-23.9-53.2-35.6
		c-21.3,14.2-42.4,28.3-63.3,42.4c-1.3,0.9-2.5,2.9-2.5,4.3C195.3,267.4,195.3,289.7,195.3,313.4z M126.2,180
		c17.6,11.8,34.6,23.2,51.7,34.4c1.2,0.8,4.1,0.2,5.5-0.8c14.1-9.2,28-18.6,42-27.9c2.7-1.8,5.4-3.6,8.4-5.7
		c-17.6-11.7-34.5-23.1-51.6-34.4c-1-0.7-3.3-0.7-4.3,0C160.8,156.8,143.8,168.2,126.2,180z M33.5,205.3c13-8.7,25.2-16.9,37.9-25.3
		c-12.7-8.5-25-16.7-37.9-25.3C33.5,171.9,33.5,188,33.5,205.3z M326.4,154.7c-12.8,8.6-25.1,16.8-37.8,25.3
		c12.9,8.6,25.1,16.8,37.8,25.2C326.4,188,326.4,171.8,326.4,154.7z"/>
</g>
</svg>
